<svg xmlns="http://www.w3.org/2000/svg" xmlns:svg="http://www.w3.org/2000/svg" id="svg4310" width="16" height="16" version="1.1" viewBox="0 0 16 16"><metadata id="metadata4322"/><g style="fill:#dc322f;fill-opacity:1" id="g4314" transform="matrix(0.99,0,0,0.99,0.08838834,0.12906154)"><path style="color:#000;line-height:normal;fill:#dc322f;fill-opacity:1" id="path4316" d="M 5.5,0.375 C 2.2983821,1.4340727 0,4.4774601 0,8 c 0,4.389595 3.5803783,8.03125 8,8.03125 4.419622,0 8,-3.641655 8,-8.03125 0,-3.5219879 -2.299024,-6.5653698 -5.5,-7.625 l 0,2.15625 C 12.541964,3.493202 14,5.5609693 14,8 14,11.367034 11.30958,14.0625 8,14.0625 4.6904203,14.0625 2,11.367034 2,8 2,5.5408408 3.4437776,3.4523957 5.5,2.5 l 0,-2.125 z"/><rect id="rect4318" width="2" height="8" x="-9" y=".024" rx=".837" ry="0" transform="scale(-1,1)" style="fill:#dc322f;fill-opacity:1"/></g></svg>